<?xml version="1.0" encoding="utf-8"?>
<!-- Generator: Adobe Illustrator 23.0.1, SVG Export Plug-In . SVG Version: 6.00 Build 0)  -->
<svg version="1.1" id="Livello_1" xmlns="http://www.w3.org/2000/svg" xmlns:xlink="http://www.w3.org/1999/xlink" x="0px" y="0px"
	 viewBox="0 0 299.95 41.33" style="enable-background:new 0 0 299.95 41.33;" xml:space="preserve">
<style type="text/css">
	.st0{fill:#FFFFFF;}
</style>
<g>
	<path class="st0" d="M51.29,39.85c0,0.4-0.17,0.74-0.52,1.04c-0.35,0.29-0.79,0.44-1.33,0.44H13.14c-2.41,0-4.45-0.17-6.13-0.52
		c-1.67-0.34-3.03-0.92-4.06-1.74c-1.03-0.81-1.78-1.88-2.25-3.21c-0.47-1.33-0.7-3-0.7-5.02v-4.87c0-2.02,0.23-3.69,0.7-5.02
		c0.47-1.33,1.22-2.4,2.25-3.21c1.03-0.81,2.39-1.39,4.06-1.73c1.67-0.34,3.71-0.52,6.13-0.52h24.65c0.84,0,1.39-0.15,1.66-0.45
		c0.27-0.3,0.41-0.95,0.41-1.95V8.6c0-0.9-0.14-1.5-0.41-1.8c-0.27-0.3-0.82-0.45-1.66-0.45H3.32c-0.54,0-0.98-0.15-1.33-0.44
		C1.65,5.61,1.48,5.24,1.48,4.8V1.4c0-0.39,0.19-0.73,0.55-1C2.4,0.14,2.83,0,3.32,0h34.91c2.41,0,4.45,0.17,6.12,0.52
		c1.67,0.35,3.03,0.92,4.06,1.74c1.03,0.81,1.77,1.89,2.21,3.22c0.44,1.33,0.66,3.01,0.66,5.04V39.85z M11.84,34.54
		c0.27,0.3,0.85,0.44,1.73,0.44h26.27V21.84H13.58c-0.89,0-1.46,0.15-1.73,0.44c-0.27,0.3-0.41,0.94-0.41,1.92v8.41
		C11.44,33.6,11.57,34.24,11.84,34.54"/>
	<path class="st0" d="M69.31,9v30.55c0,0.4-0.16,0.79-0.48,1.18c-0.32,0.39-0.73,0.59-1.22,0.59h-7.9c-0.49,0-0.92-0.2-1.29-0.59
		c-0.37-0.4-0.55-0.79-0.55-1.18V6.88c0-0.79,0.11-1.58,0.33-2.37c0.22-0.79,0.57-1.5,1.03-2.14c0.47-0.64,1.08-1.17,1.85-1.59
		c0.76-0.42,1.71-0.63,2.84-0.63H87.4c0.39,0,0.76,0.11,1.1,0.34c0.34,0.22,0.57,0.46,0.67,0.71v3.36c0.2,0.55,0.12,1.01-0.22,1.38
		c-0.35,0.37-0.86,0.56-1.55,0.56H71.45c-0.69,0-1.22,0.28-1.58,0.85C69.5,7.91,69.31,8.46,69.31,9"/>
	<path class="st0" d="M113.51,0h14.54c0.54,0,0.98,0.15,1.33,0.44c0.34,0.29,0.52,0.63,0.52,1.02v3.43c0,0.39-0.17,0.73-0.52,1.02
		c-0.35,0.29-0.79,0.44-1.33,0.44h-14.54v26.03c0,0.99,0.13,1.64,0.41,1.93c0.27,0.3,0.85,0.45,1.74,0.45h12.54
		c0.49,0,0.92,0.15,1.29,0.44c0.37,0.3,0.55,0.64,0.55,1.03v3.39c0,0.4-0.18,0.77-0.55,1.14c-0.37,0.37-0.8,0.55-1.29,0.55h-13.06
		c-3.35,0-5.92-0.2-7.71-0.59c-1.8-0.4-3.09-1.01-3.88-1.86c-0.79-0.84-1.23-1.95-1.33-3.34c-0.1-1.39-0.15-3.04-0.15-4.98V6.35
		h-7.75c-0.54,0-0.99-0.14-1.33-0.44c-0.34-0.29-0.52-0.63-0.52-1.02V1.46c0-0.39,0.17-0.73,0.52-1.02C93.34,0.15,93.78,0,94.32,0
		h7.75"/>
	<path class="st0" d="M147.98,21.84v10.77c0,0.99,0.13,1.62,0.41,1.92c0.27,0.29,0.85,0.44,1.73,0.44h37.2
		c0.54,0,0.98,0.15,1.33,0.44c0.34,0.3,0.52,0.64,0.52,1.03l-0.07,3.39c0,0.4-0.18,0.74-0.55,1.03c-0.37,0.29-0.8,0.44-1.29,0.44
		h-37.56c-2.41,0-4.45-0.17-6.13-0.52c-1.67-0.35-3.02-0.93-4.06-1.74c-1.03-0.81-1.78-1.89-2.25-3.22c-0.47-1.33-0.7-3.01-0.7-5.04
		V10.52c0-2.02,0.23-3.7,0.7-5.04c0.47-1.33,1.22-2.41,2.25-3.22c1.04-0.82,2.39-1.39,4.06-1.74c1.67-0.35,3.71-0.52,6.13-0.52
		h26.13c2.41,0,4.45,0.17,6.12,0.52c1.67,0.35,3.03,0.93,4.06,1.74c1.03,0.82,1.77,1.89,2.21,3.23c0.44,1.34,0.66,3.02,0.66,5.05
		v9.81c0,0.4-0.17,0.75-0.52,1.04c-0.34,0.3-0.79,0.44-1.33,0.44H147.98z M147.98,15.5h29.45V8.75c0-1-0.14-1.65-0.41-1.95
		c-0.27-0.3-0.85-0.45-1.74-0.45h-25.17c-0.89,0-1.46,0.15-1.73,0.45c-0.27,0.3-0.41,0.95-0.41,1.95V15.5z"/>
	<path class="st0" d="M206.82,32.59c0,0.99,0.14,1.64,0.41,1.94c0.27,0.3,0.85,0.45,1.74,0.45h30.85c0.54,0,1,0.15,1.37,0.44
		c0.37,0.3,0.53,0.66,0.48,1.11l-0.15,3.4c0,0.39-0.17,0.73-0.52,1c-0.35,0.27-0.79,0.41-1.33,0.41h-31.14
		c-2.41,0-4.45-0.17-6.13-0.52c-1.67-0.35-3.02-0.93-4.06-1.75c-1.03-0.82-1.78-1.9-2.25-3.23c-0.47-1.34-0.7-3.02-0.7-5.05V10.55
		c0-2.03,0.23-3.72,0.7-5.05c0.47-1.34,1.22-2.42,2.25-3.23c1.04-0.82,2.39-1.4,4.06-1.75C204.06,0.17,206.1,0,208.52,0h31.73
		c0.54,0,0.98,0.15,1.33,0.44c0.34,0.29,0.52,0.64,0.52,1.03v3.4c0,0.39-0.17,0.74-0.52,1.03c-0.34,0.29-0.79,0.44-1.33,0.44h-31.29
		c-0.89,0-1.46,0.15-1.74,0.45c-0.27,0.3-0.41,0.94-0.41,1.94V32.59z"/>
	<path class="st0" d="M299.95,30.85c0,2.02-0.22,3.69-0.66,5.02c-0.44,1.33-1.18,2.4-2.21,3.21c-1.03,0.81-2.39,1.39-4.06,1.73
		c-1.67,0.34-3.71,0.52-6.12,0.52h-26.13c-2.41,0-4.45-0.17-6.13-0.52c-1.67-0.34-3.02-0.92-4.06-1.73
		c-1.03-0.81-1.78-1.88-2.25-3.21c-0.47-1.33-0.7-3-0.7-5.02V10.7c0-2.02,0.23-3.69,0.7-5.02c0.47-1.33,1.22-2.4,2.25-3.21
		c1.04-0.81,2.39-1.39,4.06-1.73c1.67-0.34,3.71-0.52,6.13-0.52h26.13c2.41,0,4.45,0.17,6.12,0.52c1.67,0.34,3.03,0.92,4.06,1.73
		c1.03,0.81,1.77,1.88,2.21,3.21c0.44,1.33,0.66,3,0.66,5.02V30.85z M261.2,6.57c-0.89,0-1.46,0.15-1.73,0.44
		c-0.27,0.3-0.41,0.94-0.41,1.92v23.69c0,0.98,0.13,1.62,0.41,1.92c0.27,0.29,0.85,0.44,1.73,0.44h25.17c0.88,0,1.46-0.15,1.73-0.44
		c0.27-0.3,0.41-0.94,0.41-1.92V8.93c0-0.98-0.14-1.62-0.41-1.92c-0.27-0.29-0.85-0.44-1.73-0.44H261.2z"/>
</g>
</svg>
