<?xml version="1.0" encoding="utf-8"?>
<!-- Generator: Adobe Illustrator 17.0.0, SVG Export Plug-In . SVG Version: 6.00 Build 0)  -->
<!DOCTYPE svg PUBLIC "-//W3C//DTD SVG 1.1//EN" "http://www.w3.org/Graphics/SVG/1.1/DTD/svg11.dtd">
<svg version="1.1" id="Livello_1" xmlns="http://www.w3.org/2000/svg" xmlns:xlink="http://www.w3.org/1999/xlink" x="0px" y="0px"
	 width="850.394px" height="125.782px" viewBox="0 0 850.394 125.782" enable-background="new 0 0 850.394 125.782"
	 xml:space="preserve">
<path fill="#FFFFFF" d="M850.394,121.1c0,1.204-0.593,2.263-1.774,3.16c-1.186,0.897-2.704,1.347-4.557,1.347H719.491
	c-8.276,0-15.282-0.52-21.018-1.568c-5.738-1.044-10.38-2.808-13.93-5.278c-3.545-2.47-6.118-5.724-7.723-9.763
	c-1.6-4.039-2.399-9.124-2.399-15.263V78.918c0-6.131,0.799-11.223,2.399-15.258c1.605-4.04,4.178-7.297,7.723-9.768
	c3.55-2.468,8.192-4.226,13.93-5.274c5.736-1.045,12.742-1.572,21.018-1.572h84.566c2.868,0,4.771-0.456,5.694-1.365
	c0.93-0.913,1.394-2.89,1.394-5.937v-13.69c0-2.731-0.464-4.559-1.394-5.468c-0.923-0.913-2.826-1.375-5.694-1.375H685.811
	c-1.863,0-3.379-0.444-4.558-1.344c-1.178-0.897-1.771-2.02-1.771-3.367V4.177c0-1.195,0.635-2.208,1.893-3.03
	c1.27-0.821,2.746-1.234,4.436-1.234h119.768c8.273,0,15.275,0.526,21.011,1.579c5.736,1.051,10.385,2.81,13.93,5.289
	c3.543,2.479,6.073,5.746,7.599,9.8c1.516,4.054,2.275,9.16,2.275,15.319V121.1z M715.055,104.959
	c0.933,0.898,2.908,1.346,5.952,1.346h90.137V66.35h-90.137c-3.044,0-5.019,0.45-5.952,1.344c-0.931,0.901-1.394,2.847-1.394,5.839
	v25.588C713.661,102.119,714.123,104.062,715.055,104.959"/>
<path fill="#FFFFFF" d="M647.443,117.805c0,4.309-3.752,7.802-8.38,7.802h-21.832c-4.628,0-8.38-3.493-8.38-7.802V7.715
	c0-4.309,3.752-7.802,8.38-7.802h21.832c4.628,0,8.38,3.493,8.38,7.802V117.805z"/>
<path fill="#C00418" d="M37.46,125.434C13.761,125.434,0,108.877,0,89.827v-54.12C0,13.439,13.761,0.087,37.46,0.087h101.23
	c23.869,0,37.283,13.352,37.283,35.621v54.12c0,19.05-13.414,35.606-37.283,35.606H37.46z M129.624,102.295
	c6.973,0,10.108-6.234,10.108-12.468v-54.12c0-8.017-3.135-12.83-10.108-12.83H46.696c-7.143,0-10.278,4.813-10.278,12.83v54.12
	c0,6.234,3.135,12.468,10.278,12.468H129.624z"/>
<path fill="#FFFFFF" d="M405.901,0h138.578c24.986,0,37.394,15.657,37.394,36.679v88.842h-35.295V36.679
	c0-7.655-3.323-12.83-9.79-12.83h-95.414v101.498h-35.296L405.901,0z"/>
<path fill="#FFFFFF" d="M341.529,0.087c26.932,0,37.394,16.208,37.394,35.07v90.277h-34.385V35.157
	c0-5.872-4.43-12.106-10.274-12.106h-15.771c-4.964,0-7.799,6.234-7.799,12.106v90.277h-37.04V35.157
	c0-5.872-3.008-12.106-10.274-12.106h-15.771c-7.265,0-10.281,6.234-10.281,12.106v90.277h-34.378V35.157c0-18.861,0-35.07,0-35.07
	h69.823c6.197,0,12.602,0,18.163,0c6.843,0,11.958,0,20.818,0H341.529z"/>
</svg>
